# xmcd
#
# Track frame offsets: 
#        150
#        21148
#        50618
#        69521
#        79439
#        95877
#        112879
#        131887
#        146413
#        167995
#        182566
#        196451
#
# Disc length: 2832 seconds
#
# Revision: 0
# Processed by: cddbd v1.5.2PL0 Copyright (c) Steve Scherf et al.
# Submitted via: ExactAudioCopy v0.99pb5
#
DISCID=b00b0e0c
DTITLE=Jimmy Crowley - Some Things Never Change
DYEAR=1981
DGENRE=Ballad
TTITLE0=The Fox and the Hare
TTITLE1=The Banks of Sullane
TTITLE2=The Killeen's Hunt
TTITLE3=An Invitation to a Funeral
TTITLE4=Summer Madness
TTITLE5=Ain't Every Chap Doin' it but You
TTITLE6=Postcards
TTITLE7=Dear old City by the Lee
TTITLE8=The Holy Ground
TTITLE9=If I didn't have a Dime
TTITLE10=Johnny Will
TTITLE11=The Boys of Fairhill
EXTD=
EXTT0=
EXTT1=
EXTT2=
EXTT3=
EXTT4=
EXTT5=
EXTT6=
EXTT7=
EXTT8=
EXTT9=
EXTT10=
EXTT11=
PLAYORDER=
